# xmcd
#
# Track frame offsets: 
#        150
#        13455
#        30210
#        40250
#        51367
#        62877
#        82422
#        94940
#        107077
#        114780
#        127017
#        143767
#
# Disc length: 2101 seconds
#
# Revision: 0
# Processed by: cddbd v1.5.2PL0 Copyright (c) Steve Scherf et al.
# Submitted via: ExactAudioCopy v0.99pb4
#
DISCID=a708330c
DTITLE=Harris, Mickey - Dog House Blues
DYEAR=2008
DGENRE=Bluegrass
TTITLE0=Dog House Blues
TTITLE1=Farewell Party
TTITLE2=Coming Home
TTITLE3=Move On In And Stay
TTITLE4=Copper Creek
TTITLE5=Take Just A Minute For Him
TTITLE6=Don't Wait Too Late
TTITLE7=Blues Are Still The BLues
TTITLE8=You Can't Stop Me From Dreaming
TTITLE9=Why Did You Wander
TTITLE10=I've Got A Home
TTITLE11=The Nine Pound Hammer
EXTD=
EXTT0=
EXTT1=
EXTT2=
EXTT3=
EXTT4=
EXTT5=
EXTT6=
EXTT7=
EXTT8=
EXTT9=
EXTT10=
EXTT11=
PLAYORDER=
